
Cast: Amir khan

Director:
John Mathew Matthan

IDBM rating : 8.2

PLOT:
Ajay Singh and his family own and operate "Rajri" a clothing emporium in South Bombay. Ajay is a fan of ghazal singer, Gulfam Hussain, and is thrilled to actually meet him during one of his performances. During this performance, he meets with Seema, and both fall in love. Seema is introduced to Ajay's family, and they unanimously approve of her. What Seema does not know is that Ajay is acutally Assistant Commissioner of Police, Ajay Singh Rathod, who has been assigned the task of apprehending a group of terrorists, that are being sheltered and protected by corrupt parliamentary representatives, with arms being supplied by Pakistan. Ajay does not know that the trail which he is following will lead him to Rajasthan, right into the house of the person who runs this operation - a person who is known to him.

General
Complete name                    : Sarfarosh-[1999]-[DVDRiP]-[x264]-[100rabh]-[TEAM TDBB].mkv
Format                           : Matroska
Ripper                           : Myself 100rabh [TDBB]
Source                           : DVD9@DUS
Release Date                     : 30 April 1999 (India)     
Genre                            : Action | Adventure | Drama 
File size                        : 1.36 GiB
Duration                         : 2h 54mn
Overall bit rate                 : 1 118 Kbps
Encoded date                     : UTC 2010-03-26 17:12:41
Writing application              : mkvmerge v3.2.0 ('Beginnings') built on Feb 12 2010 16:46:17
Writing library                  : libebml v0.7.9 + libmatroska v0.8.1

Video
ID                               : 1
Format                           : AVC
Format/Info                      : Advanced Video Codec
Format profile                   : High@L2.1
Format settings, CABAC           : Yes
Format settings, ReFrames        : 5 frames
Muxing mode                      : Container profile=Unknown@2.1
Codec ID                         : V_MPEG4/ISO/AVC
Duration                         : 2h 54mn
Bit rate                         : 904 Kbps
Nominal bit rate                 : 894 Kbps
Width                            : 656 pixels
Height                           : 288 pixels
Display aspect ratio             : 2.25:1
Frame rate                       : 23.976 fps
Resolution                       : 8 bits
Colorimetry                      : 4:2:0
Scan type                        : Progressive
Bits/(Pixel*Frame)               : 0.200
Stream size                      : 1.10 GiB (81%)
Writing library                  : x264 core 80 r1376M 3feaec2
Encoding settings                : cabac=1 / ref=5 / deblock=1:-1:-1 / analyse=0x3:0x133 / me=umh / subme=7 / psy=1 / psy_rd=1.0:0.0 / mixed_ref=1 / me_range=16 / chroma_me=1 / trellis=2 / 8x8dct=1 / cqm=0 / deadzone=21,11 / fast_pskip=1 / chroma_qp_offset=-2 / threads=3 / sliced_threads=0 / nr=0 / decimate=1 / mbaff=0 / constrained_intra=0 / bframes=3 / b_pyramid=0 / b_adapt=2 / b_bias=0 / direct=3 / wpredb=1 / wpredp=2 / keyint=250 / keyint_min=25 / scenecut=40 / rc_lookahead=40 / rc=2pass / mbtree=1 / bitrate=894 / ratetol=1.0 / qcomp=0.60 / qpmin=10 / qpmax=51 / qpstep=4 / cplxblur=20.0 / qblur=0.5 / ip_ratio=1.40 / aq=1:1.00
Language                         : English

Audio
ID                               : 2
Format                           : AC-3
Format/Info                      : Audio Coding 3
Codec ID                         : A_AC3
Duration                         : 2h 54mn
Bit rate mode                    : Constant
Bit rate                         : 192 Kbps
Channel(s)                       : 2 channels
Channel positions                : L R
Sampling rate                    : 48.0 KHz
Stream size                      : 240 MiB (17%)


FOR SAMPLE CLICK HERE


TDBB - A Healthy Dose Of Entertainment
===============================
Keep Supporting TDBB
======================================

RIPPER NOTE:ENJOY ANOTHER FINE RELEASE FROM TEAM TDBB !!



Give Credit to me 100rabh & TEAM TDBB wherever u share this

